<?xml version="1.0" encoding="iso-8859-1"?>
<!-- Generator: Adobe Illustrator 23.0.1, SVG Export Plug-In . SVG Version: 6.00 Build 0)  -->
<svg version="1.1" id="Layer_1" xmlns="http://www.w3.org/2000/svg" xmlns:xlink="http://www.w3.org/1999/xlink" x="0px" y="0px"
	 viewBox="-10.043 141 434.087 512" style="enable-background:new -10.043 141 434.087 512;" xml:space="preserve">
<path style="fill:#36D9D9;" d="M106.826,274.565c-9.223,0-16.696-7.473-16.696-16.696v-66.783c0-9.206-7.49-16.696-16.696-16.696
	H6.652c-9.223,0-16.696-7.473-16.696-16.696c0-9.223,7.473-16.696,16.696-16.696h66.783c27.619,0,50.087,22.468,50.087,50.087
	v66.783C123.522,267.092,116.049,274.565,106.826,274.565z"/>
<path style="fill:#D7EBFF;" d="M297.823,552.826l-2.893,33.391l-4.563,51.534c-0.669,8.682-7.903,15.249-16.584,15.249H73.435
	c-8.682,0-15.915-6.567-16.584-15.249l-4.563-51.534l-2.893-33.391H297.823z"/>
<path style="fill:#BDDEFF;" d="M173.609,653h100.174c8.682,0,15.915-6.567,16.584-15.249l4.563-51.534l2.893-33.391H173.609V653z"/>
<path style="fill:#FF8C4F;" d="M400.78,187.859c-3.338-4.452-7.011-8.57-11.019-12.577c-4.006-4.007-8.237-7.679-12.688-10.908
	C357.038,149.237,332.774,141,307.174,141s-49.864,8.237-69.899,23.374c-4.451,3.228-8.682,6.901-12.688,10.908
	c-4.008,4.007-7.681,8.237-10.909,12.689c-15.137,20.035-23.374,44.299-23.374,69.899l38.4,86.595
	c22.261,20.257,50.421,30.386,78.47,30.386c24.598,0,49.307-7.791,69.899-23.485c4.451-3.228,8.682-6.901,12.688-10.908
	c4.008-4.007,7.681-8.125,11.019-12.577c15.139-20.035,23.264-44.41,23.264-70.01S415.918,207.894,400.78,187.859z"/>
<path style="fill:#EE6B28;" d="M377.073,351.365c4.451-3.228,8.682-6.901,12.688-10.908c4.008-4.007,7.681-8.125,11.019-12.577
	c15.139-20.035,23.264-44.41,23.264-70.01s-8.125-49.976-23.264-70.01c-3.338-4.452-7.011-8.57-11.019-12.577
	c-4.006-4.007-8.237-7.679-12.688-10.908C357.038,149.237,332.774,141,307.174,141v233.85
	C331.772,374.85,356.481,367.059,377.073,351.365z"/>
<path style="fill:#FFEFD9;" d="M390.652,257.87c0,16.696-4.785,32.612-13.802,46.08c-3.117,4.564-6.679,8.904-10.685,12.911
	c-4.008,4.007-8.348,7.569-12.911,10.685c-13.913,9.238-29.942,13.913-46.08,13.913c-20.035,0-40.07-7.235-56.097-21.704
	l-27.381-61.885c0-16.696,4.785-32.612,13.802-46.08c3.117-4.563,6.679-8.904,10.685-12.911c4.008-4.007,8.348-7.57,12.911-10.685
	c13.469-9.016,29.384-13.802,46.08-13.802s32.611,4.786,46.08,13.802c4.563,3.117,8.903,6.678,12.911,10.685
	c4.006,4.007,7.568,8.348,10.685,12.911C385.867,225.257,390.652,241.174,390.652,257.87z"/>
<path style="fill:#FFD9B3;" d="M390.652,257.87c0,16.696-4.785,32.612-13.802,46.08c-3.117,4.564-6.679,8.904-10.685,12.911
	c-4.008,4.007-8.348,7.569-12.911,10.685c-13.913,9.238-29.942,13.913-46.08,13.913V174.391c16.696,0,32.611,4.786,46.08,13.802
	c4.563,3.117,8.903,6.678,12.911,10.685c4.006,4.007,7.568,8.348,10.685,12.911C385.867,225.257,390.652,241.174,390.652,257.87z"/>
<path style="fill:#FF8C4F;" d="M400.78,327.88c-3.338,4.452-7.011,8.57-11.019,12.577c-4.006,4.007-8.237,7.68-12.688,10.908
	l-23.819-23.819L213.678,187.97c3.228-4.452,6.901-8.682,10.909-12.689c4.006-4.007,8.237-7.679,12.688-10.908l69.899,69.899
	l69.899-69.899c4.451,3.228,8.682,6.901,12.688,10.908c4.008,4.007,7.681,8.125,11.019,12.577l-23.929,23.93l-46.08,46.08
	L400.78,327.88z"/>
<path style="fill:#EE6B28;" d="M353.254,327.546l23.819,23.819c4.451-3.228,8.682-6.901,12.688-10.908
	c4.008-4.007,7.681-8.125,11.019-12.577l-70.009-70.01l46.08-46.08l23.929-23.93c-3.338-4.452-7.011-8.57-11.019-12.577
	c-4.006-4.007-8.237-7.679-12.688-10.908l-69.899,69.899v47.193L353.254,327.546z"/>
<path style="fill:#D7EBFF;" d="M323.758,259.317l-9.795,111.304l-3.115,34.838c-3.785-1.336-7.46-2.894-11.13-4.675
	c-6.791-3.339-14.024-5.343-21.373-5.788c-10.35-0.89-21.035,1.002-30.497,5.788c-21.816,11.019-47.416,13.245-74.239,3.117
	c-2.783-1.002-5.677-2.226-8.57-3.562c-16.807-8.014-35.617-7.123-50.756,0.445c-12.799,6.456-26.823,9.572-40.848,9.572
	c-1.113,0-2.114,0-3.228-0.111c-11.687-0.334-23.374-2.894-34.169-7.903l-3.228-37.287l-9.35-105.739
	c-0.445-4.675,1.113-9.238,4.23-12.689c3.226-3.45,7.68-5.454,12.354-5.454h267.13c4.674,0,9.128,2.003,12.355,5.454
	C322.645,250.078,324.203,254.642,323.758,259.317z"/>
<path style="fill:#BDDEFF;" d="M323.758,259.317l-9.795,111.304l-3.115,34.838c-3.785-1.336-7.46-2.894-11.13-4.675
	c-6.791-3.339-14.024-5.343-21.373-5.788c-10.35-0.89-21.035,1.002-30.497,5.788c-21.816,11.019-47.416,13.245-74.239,3.117V241.174
	h133.565c4.674,0,9.128,2.003,12.355,5.454C322.645,250.078,324.203,254.642,323.758,259.317z"/>
<path style="fill:#FF8C4F;" d="M313.963,370.621l-3.115,34.838l-13.025,147.367l-2.893,33.391H52.287l-2.893-33.391L36.037,402.343
	l-3.228-37.287c5.01,1.558,9.906,3.45,14.691,5.899c7.125,3.562,13.692,5.343,19.812,5.899c17.476,1.892,30.831-5.565,39.068-8.904
	c21.483-8.57,44.077-8.57,64.223-1.447c0.892,0.334,1.892,0.668,3.005,1.224c11.911,4.897,32.946,16.362,59.326,3.228
	c15.025-7.569,31.832-10.685,48.304-9.238C292.481,362.607,303.611,365.501,313.963,370.621z"/>
<path style="fill:#EE6B28;" d="M313.963,370.621l-3.115,34.838l-13.025,147.367l-2.893,33.391H173.609v-218.49
	c11.911,4.897,32.946,16.362,59.326,3.228c15.025-7.569,31.832-10.685,48.304-9.238
	C292.481,362.607,303.611,365.501,313.963,370.621z"/>
<g>
	<path style="fill:#304649;" d="M173.61,506.292L173.61,506.292c-9.785,0-17.718-7.932-17.718-17.718v-13.288h35.435v13.288
		C191.328,498.359,183.395,506.292,173.61,506.292z"/>
	<path style="fill:#304649;" d="M239.221,483.631c-4.142,0-7.5-3.357-7.5-7.5v-11.698c0-4.143,3.358-7.5,7.5-7.5s7.5,3.357,7.5,7.5
		v11.698C246.721,480.273,243.363,483.631,239.221,483.631z"/>
	<path style="fill:#304649;" d="M107.998,483.631c-4.142,0-7.5-3.357-7.5-7.5v-11.698c0-4.143,3.358-7.5,7.5-7.5s7.5,3.357,7.5,7.5
		v11.698C115.498,480.273,112.14,483.631,107.998,483.631z"/>
</g>
<g>
	<path style="fill:#EFEDEE;" d="M245.07,505.744h-11.698c-4.142,0-7.5-3.357-7.5-7.5s3.358-7.5,7.5-7.5h11.698
		c4.142,0,7.5,3.357,7.5,7.5S249.213,505.744,245.07,505.744z"/>
	<path style="fill:#EFEDEE;" d="M113.847,505.744h-11.698c-4.142,0-7.5-3.357-7.5-7.5s3.358-7.5,7.5-7.5h11.698
		c4.142,0,7.5,3.357,7.5,7.5S117.989,505.744,113.847,505.744z"/>
</g>
</svg>
