<?xml version="1.0" encoding="iso-8859-1"?>
<!-- Generator: Adobe Illustrator 19.0.0, SVG Export Plug-In . SVG Version: 6.00 Build 0)  -->
<svg version="1.1" id="Layer_1" xmlns="http://www.w3.org/2000/svg" xmlns:xlink="http://www.w3.org/1999/xlink" x="0px" y="0px"
	 viewBox="0 0 512 512" style="enable-background:new 0 0 512 512;" xml:space="preserve">
<rect x="336.572" y="206.994" style="fill:#2C4956;" width="13.343" height="137.54"/>
<path style="fill:#EF4545;" d="M94.621,356.875c0.858-0.317,1.692-0.74,2.469-1.296l11.323-8.093
	c4.739-3.388,5.847-10.04,2.463-14.781l-22.931-32.131c-3.384-4.743-10.03-5.85-14.77-2.462l-11.323,8.093
	c-0.778,0.556-1.448,1.208-2.027,1.916L94.621,356.875z"/>
<ellipse style="fill:#FBD33B;" cx="101" cy="80.488" rx="51.147" ry="51.123"/>
<rect x="101.919" y="382.433" style="fill:#00837B;" width="28.949" height="59.82"/>
<rect x="101.919" y="382.433" style="opacity:0.1;enable-background:new    ;" width="14.207" height="59.82"/>
<rect x="247.954" y="382.433" style="fill:#00837B;" width="28.95" height="59.82"/>
<rect x="247.954" y="382.433" style="opacity:0.1;enable-background:new    ;" width="14.207" height="59.82"/>
<path style="fill:#A0C663;" d="M358.07,468.221c0,2.912-2.383,5.294-5.294,5.294h-19.066c-2.913,0-5.296-2.382-5.296-5.294V343.238
	c0-2.913,2.382-5.296,5.296-5.296h19.065c2.912,0,5.294,2.382,5.294,5.296v124.982H358.07z"/>
<path style="opacity:0.1;enable-background:new    ;" d="M339.224,468.221V343.238c0-2.913,2.382-5.296,5.296-5.296h-10.811
	c-2.913,0-5.296,2.382-5.296,5.296V468.22c0,2.912,2.382,5.294,5.296,5.294h10.811C341.606,473.515,339.224,471.133,339.224,468.221
	z"/>
<path style="fill:#FBD33B;" d="M468.254,474.941c-22.566-28.575-54.519-44.924-88.015-44.924c-24.79,0-48.739,8.951-68.661,25.185
	l-11.477,19.74h168.153V474.941z"/>
<path style="fill:#FFAA0E;" d="M367.741,474.941c-41.65-37.292-100.902-58.661-162.901-58.661S83.59,437.647,41.94,474.941
	L367.741,474.941L367.741,474.941z"/>
<path style="opacity:0.1;enable-background:new    ;" d="M204.841,416.281c-61.999,0-121.251,21.367-162.901,58.661h44.022
	c36.688-32.851,87.038-53.335,140.89-57.753C219.569,416.592,212.226,416.281,204.841,416.281z"/>
<path style="fill:#08B39B;" d="M299.832,386.273c0,2.912-2.383,5.296-5.294,5.296H92.293c-2.912,0-6.68-1.94-8.372-4.31
	l-51.412-72.033c-1.692-2.37-1.137-5.697,1.232-7.389l17.796-12.721c2.369-1.695,5.692-1.142,7.384,1.23l41.703,58.43
	c1.692,2.372,5.46,4.31,8.373,4.31h185.542c2.912,0,5.294,2.383,5.294,5.296V386.273z"/>
<path style="opacity:0.1;enable-background:new    ;" d="M106.032,387.258L54.62,315.225c-1.692-2.37-1.138-5.697,1.231-7.389
	l7.464-5.335l-4.394-6.155c-1.693-2.372-5.016-2.925-7.384-1.23l-17.796,12.721c-2.37,1.693-2.924,5.021-1.232,7.389l51.412,72.033
	c1.692,2.37,5.46,4.31,8.372,4.31h22.111C111.492,391.568,107.724,389.629,106.032,387.258z"/>
<path style="fill:#2C4956;" d="M349.912,74.585V56.993c0-3.684-2.987-6.673-6.672-6.673c-3.684,0-6.672,2.987-6.672,6.673v17.592
	H349.912z"/>
<path style="fill:#EF4545;" d="M447.688,239.768c-1.792,0-3.406-1.086-4.082-2.746c-5.1-12.496-17.162-31.177-30.731-31.177
	c-13.57,0-25.632,18.681-30.733,31.177c-0.678,1.66-2.293,2.746-4.085,2.746c-1.793,0-3.406-1.084-4.085-2.746
	c-5.1-12.496-17.162-20.57-30.733-20.57c-13.568,0-25.631,8.074-30.732,20.57c-0.678,1.66-2.291,2.746-4.082,2.746
	c-1.792,0-3.407-1.086-4.086-2.746c-5.098-12.496-17.16-31.177-30.729-31.177c-13.57,0-25.632,18.681-30.731,31.177
	c-0.677,1.66-2.292,2.746-4.083,2.746c-1.793,0-3.406-1.084-4.085-2.746c-5.099-12.496-17.161-20.57-30.731-20.57
	c-7.612,0-15.049,2.63-20.941,7.403c-0.804,0.651-1.787,0.983-2.777,0.983c-0.727,0-1.46-0.181-2.126-0.548
	c-1.57-0.863-2.463-2.597-2.254-4.378c9.897-84.888,81.847-148.899,167.359-148.899c85.514,0,157.462,64.011,167.36,148.899
	c0.208,1.782-0.683,3.515-2.254,4.378c-0.666,0.368-1.399,0.548-2.127,0.548c-0.991,0-1.974-0.332-2.777-0.983
	c-5.891-4.773-13.328-7.403-20.941-7.403c-13.569,0-25.631,8.074-30.732,20.57C451.095,238.682,449.481,239.768,447.688,239.768
	L447.688,239.768z"/>
<path style="fill:#FBD33B;" d="M238.689,239.759c0.036,0.001,0.07,0.008,0.107,0.008c1.791,0,3.406-1.086,4.083-2.746
	c5.099-12.496,17.161-20.57,30.731-20.57c13.569,0,25.631,8.074,30.732,20.57c0.678,1.66,2.294,2.746,4.086,2.746
	c1.791,0,3.404-1.086,4.082-2.746c5.1-12.496,17.162-20.57,30.732-20.57c13.569,0,25.632,8.074,30.733,20.57
	c0.678,1.662,2.291,2.746,4.085,2.746c1.792,0,3.405-1.086,4.085-2.746c5.099-12.496,17.162-20.57,30.733-20.57
	c13.568,0,25.63,8.074,30.73,20.57c0.676,1.66,2.29,2.746,4.082,2.746c0.037,0,0.072-0.007,0.109-0.008
	c-7.714-96.653-52.058-168.746-104.555-168.746C290.744,71.013,246.402,143.106,238.689,239.759z"/>
</svg>
